# xmcd CD Database Entry
#
# Track frame offsets:
# 150
# 600
# 2864
#
# Disc length: 2887 seconds
#
# Revision: 1
# Processed by: cddbd v1.4PL0 Copyright (c) Steve Scherf et al.
# Submitted via: tcd 2.0b
#
DISCID=150b4503
DTITLE=不明 - 不明
DYEAR=1900
DGENRE=
TTITLE0=第 1 音軌
TTITLE1=第 2 音軌
TTITLE2=第 3 音軌
EXTD=
EXTT0=
EXTT1=
EXTT2=
PLAYORDER=
